<?xml version="1.0" encoding="utf-8"?>
<svg viewBox="-0.381 -1 301.735 301.735" width="301.735" height="301.735" xmlns="http://www.w3.org/2000/svg">
  <rect width="301.735" height="301.735" style="stroke: rgb(0, 0, 0); fill: rgb(5, 72, 218); stroke-width: 0px;" x="-0.381" y="-1"/>
  <path d="M 220.893 119.916 C 219.181 118.204 217.322 116.688 215.317 115.369 C 221.088 113.315 226.43 110.624 230.683 106.613 C 241.102 95.363 244.33 77.239 243.45 59.62 C 243.303 56.001 240.313 53.144 236.692 52.949 C 235.029 52.9 233.275 52.871 231.465 52.871 C 218.06 52.871 201.36 55.365 190.107 65.834 C 185.85 70.091 182.883 75.252 180.877 80.683 C 179.653 78.873 178.284 77.161 176.717 75.549 L 163.214 62.097 C 160.768 59.652 156.805 59.652 154.359 62.097 L 141.228 75.252 C 134.381 82.099 130.82 90.954 130.351 99.883 L 127.885 97.456 C 125.439 95.011 121.476 95.011 119.03 97.456 L 105.504 110.604 C 98.93 117.49 95.409 126.372 94.979 135.372 L 92.475 132.868 C 90.028 130.422 86.065 130.422 83.62 132.868 L 70.41 146.023 C 55.734 160.695 55.734 184.516 70.41 199.197 L 79.41 208.15 L 45.071 242.536 C 42.625 244.981 42.625 248.941 45.071 251.34 C 46.26 252.599 47.872 253.186 49.489 253.186 C 51.103 253.186 52.717 252.599 53.89 251.328 L 88.182 217.09 L 97.135 225.992 C 104.471 233.329 114.062 236.995 123.699 236.995 C 133.285 236.995 142.922 233.327 150.262 225.992 L 163.472 212.786 C 165.918 210.341 165.918 206.377 163.472 203.932 L 160.929 201.438 C 169.909 200.99 178.791 197.468 185.326 190.581 L 198.902 177.356 C 201.349 174.91 201.349 170.951 198.902 168.505 L 196.399 166.087 C 205.351 165.598 214.155 162.076 221.006 155.28 L 234.196 142.063 C 236.642 139.617 236.642 135.653 234.196 133.212 L 220.893 119.916 Z M 198.59 75.005 C 207.041 67.133 220.854 65.418 231.066 65.372 C 230.968 79.458 227.691 91.048 221.82 97.75 C 213.212 105.427 199.513 107.043 189.438 107.043 L 189.291 107.043 C 188.847 96.87 190.882 82.784 198.59 75.005 Z M 149.718 84.153 L 158.476 75.35 L 167.526 84.396 C 177.065 93.935 177.457 109.489 167.771 119.513 C 168.03 119.603 167.874 119.681 167.757 119.759 L 159.031 128.524 L 149.718 119.564 C 139.937 109.782 140.25 93.935 149.718 84.153 Z M 114.699 119.447 L 123.456 110.694 L 132.502 119.759 C 137.835 125.089 145.712 140.595 133.285 154.243 L 123.648 163.881 L 114.695 154.881 C 104.917 145.114 104.917 129.229 114.699 119.447 Z M 79.281 190.268 C 69.499 180.486 69.499 164.64 79.281 154.857 L 88.053 146.132 L 97.092 155.17 C 106.365 164.444 107.108 179.626 97.757 189.76 L 88.268 199.295 L 79.281 190.268 Z M 141.345 217.149 C 131.563 226.931 115.76 226.931 105.978 217.149 L 97.076 208.295 L 105.88 199.542 C 115.662 189.76 131.512 189.76 141.299 199.542 L 150.153 208.393 L 141.345 217.149 Z M 176.835 181.738 C 167.053 191.52 151.202 191.52 141.416 181.738 L 132.502 172.896 L 141.306 164.131 C 151.088 154.349 166.939 154.298 176.725 164.131 L 185.56 172.974 L 176.835 181.738 Z M 212.128 146.406 C 202.346 156.141 186.542 156.188 176.71 146.406 L 167.854 137.504 L 176.326 128.759 C 186.108 118.977 201.912 118.977 211.744 128.759 L 220.6 137.61 L 212.128 146.406 Z" style="fill: rgb(255, 255, 255);"/>
</svg>